<mxfile host="app.diagrams.net" modified="2024-02-18T00:56:19.953Z" agent="Mozilla/5.0 (Windows NT 10.0; Win64; x64) AppleWebKit/537.36 (KHTML, like Gecko) Chrome/121.0.0.0 Safari/537.36" version="23.1.5" etag="NXB_CoGDM9iaSieWQfb4" type="github">
  <diagram name="PÃ¡gina-1" id="ueos7_c6Os6l4MjmdJ2P">
    <mxGraphModel>
      <root>
        <mxCell id="0" />
        <mxCell id="1" parent="0" />
      </root>
    </mxGraphModel>
  </diagram>
</mxfile>
